<?xml version="1.0" encoding="utf-8"?>
<!-- Generator: Adobe Illustrator 18.1.1, SVG Export Plug-In . SVG Version: 6.00 Build 0)  -->
<svg version="1.1" id="Layer_1" xmlns="http://www.w3.org/2000/svg" xmlns:xlink="http://www.w3.org/1999/xlink" x="0px" y="0px"
	 viewBox="0 0 792 612" enable-background="new 0 0 792 612" xml:space="preserve">
<g id="Layer_1_1_">
</g>
<circle fill="#444444" stroke="#F1F0F2" stroke-miterlimit="10" cx="405.3" cy="305.2" r="302.2"/>
<g>
	<rect x="175.7" y="121.1" fill="none" width="292.7" height="346.7"/>
	<path fill="#183058" stroke="#799DA5" stroke-miterlimit="10" d="M422.1,210.8c0,0-126-125-238.9,27.8c0,0-87.4,184.2,134.4,213
		c0,0,78.1-11.2,116.6-63L422.1,210.8z"/>
	<g>
		<path fill="#799DA5" stroke="#799DA5" stroke-miterlimit="10" d="M220.6,298.6c0,0-0.1,3.7,10.7,4.3c10.8,0.6,29.6,3,30.8,3.3
			c1.2,0.3,22.1,3.1,40.4,29.2c0,0,8.1-10.8,51.4-3.5c0,0,21.7,5.7,33.3-0.3c0,0-1.4,15.1-13.1,27.5c-11.8,12.4-22.9,17.1-38.2,18.2
			c-15.3,1.1-24-1.3-30.2,0.9s-9.9,10.8-9.9,10.8s-5,14.2-4.7,24.8c0.3,10.6-0.1,0.4-0.1,0.4s-0.2,28.5,1.8,34.5
			c0,0-31.3,2.2-39-11.9c0,0,10.4-18,11.2-20.4c0,0,10.3-19.8,10.4-20.4c0.2-0.7,3.9-9.6,3.7-11.5s0.4-8-3.2-11.5
			c-3.6-3.5-13.2-11.3-13.2-11.3s-15.6-10-18.4-12.3c0,0-10.1-8.9-13.5-14.3c-3.4-5.4-4.4-6.8-5.6-9.3c-1.1-2.4-3.5-8-4-11.1
			C221.3,311.3,219.7,303.3,220.6,298.6z"/>
		<path fill="#F2E5D3" d="M222.4,302c0,0,4.4,3.4,9.6,3.6c0,0,12.8,1.3,17.4,1.8c4.6,0.5,9,0.6,13.4,2.4c4.4,1.9,11.4,4.1,18.7,9.6
			c7.3,5.5,18.6,15.5,18.6,15.5s-7.3-11.3-16.2-16.6c0,0-6.1-3.9-11.3-6.9c0,0-5.4-3.3-12-4.2c-6.7-0.8-11.5-1.7-11.5-1.7
			s-12.4-1.1-13.1-0.8S228.7,304.3,222.4,302z"/>
		<path fill="#F2E5D3" d="M305,336c0,0,7.4-3.2,15.6-3.4c0,0,6-0.6,8.7-0.5c2.8,0.1,10.8,0.7,10.8,0.7l8.8,1c0,0,14.6,3,20.1,2.8
			c5.5-0.2,8.8-0.4,8.8-0.4s5.7-1.1,6-1.1l-6.3,0.5c0,0-6.4,0.1-7-0.1c-0.7-0.2-7.5-0.6-8.1-0.7c-0.7-0.1-8.1-1.5-8.1-1.5
			s-7.5-1.8-11.1-2c-3.7-0.2-10.5-0.5-10.5-0.5s-12.2-0.6-14,0.4C316.8,331.9,307.3,332.8,305,336z"/>
		<path display="none" fill="#444444" stroke="#444444" stroke-miterlimit="10" d="M376.5,357.1c0,0-20.3,15.1-39.5,15.9
			c0,0-13.6,1.9-17,1.8c-3.4-0.2-11.6-0.9-18.1,3.8c-6.5,4.7-9.9,12.8-9.9,12.8s-5.4,13.8-6,20.1c0,0-2.6,17-2.5,19.8
			c0.1,2.7,0,17.4,0,17.4h10.1c0,0-1.2-8.5-1.4-12c-0.2-3.5-0.6-17.2-0.4-18.4c0.1-1.2,1.1-16.2,2-19.7c0.9-3.4,3.1-11,4.8-13.3
			c1.7-2.3,5.9-6.6,7.8-7.1c2-0.6,8.8-1.4,9.2-0.9c0.3,0.5,13.7,0.4,14.1,0.4c0.4,0,11.8-0.7,14.3-1.3c2.6-0.5,6.4-0.8,9.1-2.4
			c2.8-1.7,7.5-3.1,10.7-5.6c3.3-2.4,7.1-5.7,7.2-5.8C371.2,362.6,376,357.7,376.5,357.1z"/>
		<g>
			<line fill="none" x1="279.4" y1="384.7" x2="301.8" y2="335.3"/>
			<path fill="#444444" d="M279.4,384.7c0,0,0.3-0.8,0.8-2.2c0.6-1.4,1.3-3.3,2.3-5.7c1-2.3,2.1-5.1,3.4-8c1.3-2.9,2.7-6.1,4.1-9.1
				c1.4-3.1,2.8-6.2,4.2-9c1.4-2.8,2.7-5.6,3.8-7.8c1.1-2.3,2.1-4.2,2.8-5.5c0.7-1.4,1.1-2.1,1.1-2.1s-0.3,0.8-0.8,2.2
				c-0.6,1.4-1.3,3.3-2.3,5.7s-2.1,5.1-3.4,8c-1.3,2.9-2.7,6.1-4.1,9.1c-1.4,3.1-2.8,6.2-4.2,9c-1.4,2.8-2.7,5.6-3.8,7.8
				c-1.1,2.3-2.1,4.2-2.8,5.5C279.8,384,279.4,384.7,279.4,384.7z"/>
		</g>
		<g>
			<line fill="none" x1="302.3" y1="336" x2="297.1" y2="383.6"/>
			<path fill="#444444" d="M302.3,336c0,0,0,0.8-0.1,2.1c-0.1,1.3-0.1,3.2-0.3,5.4c-0.1,2.3-0.4,4.9-0.6,7.6
				c-0.2,2.8-0.6,5.8-0.9,8.7c-0.3,2.9-0.7,6-1,8.7c-0.4,2.7-0.7,5.4-1.1,7.6c-0.3,2.3-0.7,4.1-0.9,5.4c-0.2,1.3-0.4,2.1-0.4,2.1
				s0-0.8,0.1-2.1s0.1-3.2,0.3-5.4c0.1-2.3,0.4-4.9,0.6-7.6c0.2-2.8,0.6-5.8,0.9-8.7c0.3-2.9,0.7-6,1-8.7c0.4-2.7,0.7-5.4,1.1-7.6
				c0.3-2.3,0.7-4.1,0.9-5.4C302.1,336.6,302.3,336,302.3,336z"/>
		</g>
	</g>
	
		<text transform="matrix(1.0155 0 0 1 109.6986 457.3015)" fill="#799DA5" font-family="'BonvenoCF-Light'" font-size="578.0859" letter-spacing="-98.5">a</text>
	
		<text transform="matrix(1.0155 0 0 1 109.6986 457.3015)" fill="none" stroke="#799DA5" stroke-width="13" stroke-miterlimit="10" font-family="'BonvenoCF-Light'" font-size="578.0859" letter-spacing="-98.5">a</text>
	
		<text transform="matrix(1.0155 0 0 0.975 433.4076 453.3874)" fill="#799DA5" font-family="'BonvenoCF-Light'" font-size="378.4369" letter-spacing="-64">k</text>
	
		<text transform="matrix(1.0155 0 0 0.975 430.4261 453.3874)" fill="none" stroke="#799DA5" stroke-width="21" stroke-miterlimit="10" font-family="'BonvenoCF-Light'" font-size="378.4369" letter-spacing="-64">k</text>
</g>
</svg>
